<svg width="390" height="277" viewBox="0 0 390 277" fill="none" xmlns="http://www.w3.org/2000/svg">
<path d="M258.621 78.6897C258.621 113.826 230.137 142.31 195 142.31C159.863 142.31 131.379 113.826 131.379 78.6897C131.379 43.5529 159.863 15.069 195 15.069C230.137 15.069 258.621 43.5529 258.621 78.6897Z" fill="url(#paint0_linear_2_20)"/>
<path d="M393 90.1724H293.339C287.631 139.439 245.641 177.69 194.69 177.69C143.738 177.69 101.748 139.439 96.0401 90.1724H-3C2.80249 194.327 89.2315 277 195 277C300.769 277 387.198 194.327 393 90.1724Z" fill="url(#paint1_linear_2_20)"/>
<path d="M392.661 62.8621H292.738C285.137 15.7094 244.133 -20.3103 194.69 -20.3103C145.246 -20.3103 104.242 15.7094 96.6416 62.8621H-2.6612C5.56356 -38.9425 90.9179 -119 195 -119C299.082 -119 384.436 -38.9425 392.661 62.8621Z" fill="url(#paint2_linear_2_20)"/>
<defs>
<linearGradient id="paint0_linear_2_20" x1="195" y1="-188" x2="195" y2="277" gradientUnits="userSpaceOnUse">
<stop stop-color="#D4CFCF"/>
<stop offset="1" stop-color="#D5CFCF" stop-opacity="0"/>
</linearGradient>
<linearGradient id="paint1_linear_2_20" x1="195" y1="-188" x2="195" y2="277" gradientUnits="userSpaceOnUse">
<stop stop-color="#D4CFCF"/>
<stop offset="1" stop-color="#D5CFCF" stop-opacity="0"/>
</linearGradient>
<linearGradient id="paint2_linear_2_20" x1="195" y1="-188" x2="195" y2="277" gradientUnits="userSpaceOnUse">
<stop stop-color="#D4CFCF"/>
<stop offset="1" stop-color="#D5CFCF" stop-opacity="0"/>
</linearGradient>
</defs>
</svg>
